<svg xmlns="http://www.w3.org/2000/svg" xmlns:xlink="http://www.w3.org/1999/xlink" width="500" zoomAndPan="magnify" viewBox="0 0 375 374.999991" height="500" preserveAspectRatio="xMidYMid meet" version="1.0"><defs><g/></defs><g fill="#306b70" fill-opacity="1"><g transform="translate(4.729835, 300.259738)"><g><path d="M 6 -28.984375 L 13.828125 -6.6875 L 21.59375 -28.984375 L 27.5 -28.984375 L 16.53125 0 L 11.09375 0 L 0.078125 -28.984375 Z M 6 -28.984375 "/></g></g></g><g fill="#306b70" fill-opacity="1"><g transform="translate(35.170029, 300.259738)"><g><path d="M 23.140625 -4.9375 L 23.140625 0 L 3.015625 0 L 3.015625 -28.984375 L 22.765625 -28.984375 L 22.765625 -24.03125 L 8.65625 -24.03125 L 8.65625 -17.0625 L 20.859375 -17.0625 L 20.859375 -12.484375 L 8.65625 -12.484375 L 8.65625 -4.9375 Z M 23.140625 -4.9375 "/></g></g></g><g fill="#306b70" fill-opacity="1"><g transform="translate(62.549947, 300.259738)"><g><path d="M 15.0625 0.203125 C 13.1875 0.203125 11.410156 -0.175781 9.734375 -0.9375 C 8.054688 -1.695312 6.582031 -2.75 5.3125 -4.09375 C 4.050781 -5.445312 3.066406 -7.019531 2.359375 -8.8125 C 1.660156 -10.613281 1.3125 -12.5625 1.3125 -14.65625 C 1.3125 -16.632812 1.660156 -18.5 2.359375 -20.25 C 3.066406 -22.007812 4.0625 -23.554688 5.34375 -24.890625 C 6.625 -26.222656 8.117188 -27.269531 9.828125 -28.03125 C 11.546875 -28.800781 13.410156 -29.1875 15.421875 -29.1875 C 18.148438 -29.1875 20.484375 -28.609375 22.421875 -27.453125 C 24.367188 -26.296875 25.832031 -24.765625 26.8125 -22.859375 L 22.609375 -19.75 C 21.878906 -21.195312 20.851562 -22.300781 19.53125 -23.0625 C 18.207031 -23.820312 16.769531 -24.203125 15.21875 -24.203125 C 14 -24.203125 12.882812 -23.941406 11.875 -23.421875 C 10.863281 -22.910156 9.988281 -22.203125 9.25 -21.296875 C 8.519531 -20.398438 7.957031 -19.367188 7.5625 -18.203125 C 7.175781 -17.035156 6.984375 -15.796875 6.984375 -14.484375 C 6.984375 -13.097656 7.191406 -11.816406 7.609375 -10.640625 C 8.035156 -9.472656 8.632812 -8.453125 9.40625 -7.578125 C 10.1875 -6.710938 11.09375 -6.03125 12.125 -5.53125 C 13.15625 -5.03125 14.296875 -4.78125 15.546875 -4.78125 C 17.015625 -4.78125 18.421875 -5.160156 19.765625 -5.921875 C 21.117188 -6.679688 22.378906 -7.796875 23.546875 -9.265625 L 23.546875 -3.71875 C 21.128906 -1.101562 18.300781 0.203125 15.0625 0.203125 Z M 23.140625 -10.78125 L 17.296875 -10.78125 L 17.296875 -14.890625 L 27.796875 -14.890625 L 27.796875 0 L 23.140625 0 Z M 23.140625 -10.78125 "/></g></g></g><g fill="#306b70" fill-opacity="1"><g transform="translate(94.989509, 300.259738)"><g><path d="M 10.890625 -28.984375 L 16.609375 -28.984375 L 27.265625 0 L 21.46875 0 L 18.78125 -7.21875 L 8.65625 -7.21875 L 6 0 L 0.203125 0 Z M 17.75 -11.1875 L 13.75 -23.140625 L 9.59375 -11.1875 Z M 17.75 -11.1875 "/></g></g></g><g fill="#306b70" fill-opacity="1"><g transform="translate(125.266495, 300.259738)"><g><path d="M 8.65625 -18.609375 L 8.65625 0 L 3.015625 0 L 3.015625 -28.984375 L 7.515625 -28.984375 L 22.484375 -9.875 L 22.484375 -28.9375 L 28.125 -28.9375 L 28.125 0 L 23.421875 0 Z M 8.65625 -18.609375 "/></g></g></g><g fill="#306b70" fill-opacity="1"><g transform="translate(159.256604, 300.259738)"><g/></g></g><g fill="#306b70" fill-opacity="1"><g transform="translate(171.906428, 300.259738)"><g><path d="M 10.890625 -28.984375 L 16.609375 -28.984375 L 27.265625 0 L 21.46875 0 L 18.78125 -7.21875 L 8.65625 -7.21875 L 6 0 L 0.203125 0 Z M 17.75 -11.1875 L 13.75 -23.140625 L 9.59375 -11.1875 Z M 17.75 -11.1875 "/></g></g></g><g fill="#306b70" fill-opacity="1"><g transform="translate(202.183414, 300.259738)"><g><path d="M 24.6875 -24.03125 L 15.421875 -24.03125 L 15.421875 0 L 9.828125 0 L 9.828125 -24.03125 L 0.578125 -24.03125 L 0.578125 -28.984375 L 24.6875 -28.984375 Z M 24.6875 -24.03125 "/></g></g></g><g fill="#306b70" fill-opacity="1"><g transform="translate(230.297802, 300.259738)"><g><path d="M 27.390625 -28.984375 L 27.390625 0 L 21.796875 0 L 21.796875 -12.359375 L 8.65625 -12.359375 L 8.65625 0 L 3.015625 0 L 3.015625 -28.984375 L 8.65625 -28.984375 L 8.65625 -17.265625 L 21.796875 -17.265625 L 21.796875 -28.984375 Z M 27.390625 -28.984375 "/></g></g></g><g fill="#306b70" fill-opacity="1"><g transform="translate(263.553429, 300.259738)"><g><path d="M 3.015625 0 L 3.015625 -28.984375 L 8.65625 -28.984375 L 8.65625 -4.9375 L 23.421875 -4.9375 L 23.421875 0 Z M 3.015625 0 "/></g></g></g><g fill="#306b70" fill-opacity="1"><g transform="translate(290.239673, 300.259738)"><g><path d="M 23.140625 -4.9375 L 23.140625 0 L 3.015625 0 L 3.015625 -28.984375 L 22.765625 -28.984375 L 22.765625 -24.03125 L 8.65625 -24.03125 L 8.65625 -17.0625 L 20.859375 -17.0625 L 20.859375 -12.484375 L 8.65625 -12.484375 L 8.65625 -4.9375 Z M 23.140625 -4.9375 "/></g></g></g><g fill="#306b70" fill-opacity="1"><g transform="translate(317.61958, 300.259738)"><g><path d="M 24.6875 -24.03125 L 15.421875 -24.03125 L 15.421875 0 L 9.828125 0 L 9.828125 -24.03125 L 0.578125 -24.03125 L 0.578125 -28.984375 L 24.6875 -28.984375 Z M 24.6875 -24.03125 "/></g></g></g><g fill="#306b70" fill-opacity="1"><g transform="translate(345.733968, 300.259738)"><g><path d="M 23.140625 -4.9375 L 23.140625 0 L 3.015625 0 L 3.015625 -28.984375 L 22.765625 -28.984375 L 22.765625 -24.03125 L 8.65625 -24.03125 L 8.65625 -17.0625 L 20.859375 -17.0625 L 20.859375 -12.484375 L 8.65625 -12.484375 L 8.65625 -4.9375 Z M 23.140625 -4.9375 "/></g></g></g><g fill="#306b70" fill-opacity="1"><g transform="translate(102.1989, 259.235044)"><g><path d="M 26.328125 -178.078125 L 85.28125 -28.34375 L 143.96875 -178.078125 L 167.796875 -178.078125 L 95.5625 0 L 75 0 L 2.515625 -178.078125 Z M 26.328125 -178.078125 "/></g></g></g><g fill="#306b70" fill-opacity="1"><g transform="translate(272.405583, 52.660169)"><g><path d="M -26.25 177.53125 L -85.015625 28.25 L -143.53125 177.53125 L -167.28125 177.53125 L -95.265625 0 L -74.765625 0 L -2.5 177.53125 Z M -26.25 177.53125 "/></g></g></g><path stroke-linecap="butt" transform="matrix(0.271854, -0.698996, 0.698996, 0.271854, 203.040841, 160.516513)" fill="none" stroke-linejoin="miter" d="M 0.00179957 7.50194 L 72.576273 7.497516 " stroke="#ffffff" stroke-width="15" stroke-opacity="1" stroke-miterlimit="4"/><path stroke-linecap="butt" transform="matrix(0.27446, -0.697977, 0.697977, 0.27446, 142.053451, 196.546744)" fill="none" stroke-linejoin="miter" d="M 0.0000376846 7.501108 L 61.472058 7.500403 " stroke="#ffffff" stroke-width="15" stroke-opacity="1" stroke-miterlimit="4"/></svg>