<svg xmlns="http://www.w3.org/2000/svg" version="1.1" xmlns:xlink="http://www.w3.org/1999/xlink" width="1500" height="1500" viewBox="0 0 1500 1500"><rect width="1500" height="1500" x="0" y="0" id="background" stroke="transparent" fill="#ffffff"></rect><svg xml:space="preserve" width="1000" height="1000" data-version="2" data-id="lg_iY7BzF4p8lwHcD0Z80" viewBox="0 0 505 312" x="250" y="250"><rect width="100%" height="100%" fill="transparent"></rect><path fill="#828282" d="m162.58 211.01-10.61-70h11.11l7.2 54.3h.19l7.2-54.3h10.11l-10.61 70z"></path><rect width="35.81" height="70" x="-17.91" y="-35" fill="none" rx="0" ry="0" transform="translate(170.38 176.51)"></rect><path fill="#828282" d="M193.08 211.01v-70h30v10h-19v18.5h15.09v10h-15.09v21.5h19v10z"></path><rect width="30" height="70" x="-15" y="-35" fill="none" rx="0" ry="0" transform="translate(208.58 176.51)"></rect><path fill="#828282" d="M244.97 212.01q-8 0-12.19-4.55-4.2-4.55-4.2-13.05v-36.8q0-8.5 4.2-13.05 4.19-4.55 12.19-4.55 8 0 12.2 4.55 4.21 4.55 4.21 13.05v6h-10.41v-6.7q0-6.9-5.69-6.9-5.7 0-5.7 6.9v38.3q0 6.8 5.7 6.8 5.69 0 5.69-6.8v-13.7h-5.5v-10h15.91v22.9q0 8.5-4.21 13.05-4.2 4.55-12.2 4.55"></path><rect width="32.8" height="72" x="-16.4" y="-36" fill="none" rx="0" ry="0" transform="translate(245.48 176.51)"></rect><path fill="#828282" d="m265.58 211.01 11.4-70h14.9l11.4 70h-11l-2-13.9v.2h-12.5l-2 13.7zm13.5-23.2h9.9l-4.9-34.6h-.2z"></path><rect width="37.7" height="70" x="-18.85" y="-35" fill="none" rx="0" ry="0" transform="translate(284.93 176.51)"></rect><path fill="#828282" d="M308.58 211.01v-70h13.79l10.71 41.9h.2v-41.9h9.8v70h-11.3l-13.2-51.1h-.21v51.1z"></path><rect width="34.5" height="70" x="-17.25" y="-35" fill="none" rx="0" ry="0" transform="translate(326.33 176.51)"></rect><path fill="#828282" d="M5.25 308.19v-70h11v28.5h11.8v-28.5h11v70h-11v-31.5h-11.8v31.5z"></path><rect width="33.8" height="70" x="-16.9" y="-35" fill="none" rx="0" ry="0" transform="translate(22.65 273.69)"></rect><path fill="#828282" d="M57.35 308.19v-29.8l-13.3-40.2h11.7l7.5 25.7h.2l7.5-25.7h10.7l-13.3 40.2v29.8z"></path><rect width="37.6" height="70" x="-18.8" y="-35" fill="none" rx="0" ry="0" transform="translate(63.35 273.69)"></rect><path fill="#828282" d="M86.65 308.19v-70h16.6q8.5 0 12.4 3.95 3.9 3.95 3.9 12.15v2.8q0 5.4-1.75 8.8-1.75 3.4-5.35 4.9v.2q8.2 2.8 8.2 14.6v6q0 8.1-4.25 12.35t-12.45 4.25zm11-41.5h4.3q3.3 0 4.95-1.7 1.65-1.7 1.65-5.7v-3.9q0-3.8-1.35-5.5-1.35-1.7-4.25-1.7h-5.3zm0 31.5h6.3q2.9 0 4.3-1.55t1.4-5.35v-6.1q0-4.8-1.65-6.65-1.65-1.85-5.45-1.85h-4.9z"></path><rect width="34" height="70" x="-17" y="-35" fill="none" rx="0" ry="0" transform="translate(104.15 273.69)"></rect><path fill="#828282" d="M127.05 308.19v-70h16.3q8.5 0 12.4 3.95 3.9 3.95 3.9 12.15v4.3q0 10.9-7.2 13.8v.2q4 1.2 5.65 4.9 1.65 3.7 1.65 9.9v12.3q0 3 .2 4.85.2 1.85 1 3.65h-11.2q-.6-1.7-.8-3.2-.2-1.5-.2-5.4v-12.8q0-4.8-1.55-6.7-1.55-1.9-5.35-1.9h-3.8v30zm11-40h4q3.3 0 4.95-1.7 1.65-1.7 1.65-5.7v-5.4q0-3.8-1.35-5.5-1.35-1.7-4.25-1.7h-5z"></path><rect width="33.9" height="70" x="-16.95" y="-35" fill="none" rx="0" ry="0" transform="translate(144.5 273.69)"></rect><path fill="#828282" d="M167.35 308.19v-70h11v70z"></path><rect width="11" height="70" x="-5.5" y="-35" fill="none" rx="0" ry="0" transform="translate(173.35 273.69)"></rect><path fill="#828282" d="M186.55 308.19v-70h16.8q8.2 0 12.3 4.4 4.1 4.4 4.1 12.9v35.4q0 8.5-4.1 12.9t-12.3 4.4zm11-10h5.6q2.7 0 4.15-1.6 1.45-1.6 1.45-5.2v-36.4q0-3.6-1.45-5.2t-4.15-1.6h-5.6z"></path><rect width="33.2" height="70" x="-16.6" y="-35" fill="none" rx="0" ry="0" transform="translate(203.65 273.69)"></rect><path fill="#828282" d="m240.25 308.19 11.4-70h14.9l11.4 70h-11l-2-13.9v.2h-12.5l-2 13.7zm13.5-23.2h9.9l-4.9-34.6h-.2z"></path><rect width="37.7" height="70" x="-18.85" y="-35" fill="none" rx="0" ry="0" transform="translate(259.6 273.69)"></rect><path fill="#828282" d="M291.85 308.19v-60h-11.5v-10h34v10h-11.5v60z"></path><rect width="34" height="70" x="-17" y="-35" fill="none" rx="0" ry="0" transform="translate(297.85 273.69)"></rect><path fill="#828282" d="M319.65 308.19v-70h11v28.5h11.8v-28.5h11v70h-11v-31.5h-11.8v31.5z"></path><rect width="33.8" height="70" x="-16.9" y="-35" fill="none" rx="0" ry="0" transform="translate(337.05 273.69)"></rect><path fill="#828282" d="M361.65 308.19v-70h11v60h18.1v10z"></path><rect width="29.1" height="70" x="-14.55" y="-35" fill="none" rx="0" ry="0" transform="translate(376.7 273.69)"></rect><path fill="#828282" d="M396.05 308.19v-70h30v10h-19v18.5h15.1v10h-15.1v21.5h19v10z"></path><rect width="30" height="70" x="-15" y="-35" fill="none" rx="0" ry="0" transform="translate(411.55 273.69)"></rect><path fill="#828282" d="M440.95 308.19v-60h-11.5v-10h34v10h-11.5v60z"></path><rect width="34" height="70" x="-17" y="-35" fill="none" rx="0" ry="0" transform="translate(446.95 273.69)"></rect><path fill="#828282" d="M468.75 308.19v-70h30v10h-19v18.5h15.1v10h-15.1v21.5h19v10z"></path><rect width="30" height="70" x="-15" y="-35" fill="none" rx="0" ry="0" transform="translate(484.25 273.69)"></rect><path fill="#828282" d="M273.833 48.418c1.698-1.829 1.829-1.829 3.135-1.306 1.96.653 4.573 1.568 11.628-5.88l20.773-21.818c.523-.523.523-1.437-.13-2.09a1.307 1.307 0 0 0-1.96-.13l-17.507 18.551c-.915.915-2.09 1.176-2.613.523-.523-.653-.392-1.83.522-2.744l17.508-18.421c.522-.523.522-1.438-.131-2.09l-.13-.131a1.307 1.307 0 0 0-1.96-.131L285.59 31.303c-.914.915-2.09 1.176-2.613.523-.523-.653-.392-1.83.523-2.744l17.376-18.552c.523-.523.523-1.437-.13-2.09l-.131-.131a1.307 1.307 0 0 0-1.96-.13L281.15 26.73c-.915.914-2.09 1.175-2.613.522-.523-.653-.392-1.829.523-2.744l17.507-18.421c.522-.523.522-1.437-.13-2.09a1.307 1.307 0 0 0-1.96-.131l-20.643 21.818c-7.186 7.447-6.272 10.322-5.618 12.281.392 1.307.653 2.09-1.046 3.79l-17.376 18.16c-1.96-2.09-2.482-2.744-2.482-2.744-1.437-1.699-1.307-2.874-1.046-4.442.131-1.045.392-2.352 0-4.05-.914-5.357-31.356-31.356-42.722-40.371-9.146-7.317-12.804-5.749-14.11-4.181-2.09 2.482-.784 7.839 2.613 11.497 2.09 2.221 26.652 27.829 50.039 52.26l-13.719 14.372c-7.316-.262-15.416 8.884-17.899 13.326-6.924 12.02-3.527 24.432-3.527 24.432 3.789-6.664 11.236-6.272 16.592-9.668 6.663-4.181 15.94-14.895 12.281-22.734-1.698.523-4.18 1.176-5.617 1.83-1.568.914-3.397 1.567-4.835 2.613l-2.351 1.437c-.784.522-1.437 1.176-2.221 1.698-.654.653-1.437 1.176-2.09 1.83-.654.652-1.307 1.306-1.83 1.959-1.306 1.176-2.22 2.744-3.135 4.05-.523.653-1.046 1.307-1.307 1.96-.392.653-.784 1.306-1.045 1.96-.653 1.306-1.437 2.482-1.83 3.527-.391 1.176-.783 2.09-1.044 2.874-.654 1.568-.915 2.483-.915 2.483l.784-2.613c.261-.784.523-1.83.915-3.005.391-1.176 1.045-2.352 1.567-3.658.262-.654.654-1.437.915-2.09.392-.654.784-1.438 1.306-2.091.915-1.437 1.699-3.005 3.005-4.442l1.83-2.221c.653-.784 1.306-1.307 2.09-2.09.653-.654 1.437-1.307 2.09-1.96l2.352-1.699c1.568-1.306 3.266-2.09 4.965-3.135q2.547-1.372 5.095-2.352c1.698-.653 3.397-1.307 4.965-1.699.392-.13 1.045-.26 1.567-.392l7.709-8.1 7.708 8.1 1.568.392c1.568.392 3.266 1.046 4.965 1.699 1.698.653 3.397 1.568 5.095 2.352 1.698 1.045 3.397 1.829 4.965 3.135l2.351 1.699c.784.653 1.438 1.306 2.09 1.96s1.438 1.306 2.091 2.09l1.83 2.22c1.306 1.307 2.09 3.006 3.004 4.443.392.784.915 1.437 1.307 2.09.261.784.653 1.437.914 2.09.523 1.307 1.176 2.614 1.568 3.659.392 1.176.653 2.22.915 3.005l.784 2.613s-.392-.915-.915-2.483a92.354 92.354 0 0 0-1.045-2.874c-.392-1.176-1.176-2.22-1.83-3.527-.391-.654-.653-1.307-1.045-1.96-.391-.653-.914-1.307-1.306-1.96-.915-1.306-1.96-2.744-3.136-4.05-.653-.653-1.175-1.307-1.829-1.96-.653-.653-1.437-1.176-2.09-1.829-.784-.522-1.437-1.176-2.221-1.698l-2.352-1.568c-1.568-1.045-3.266-1.699-4.834-2.613-1.568-.653-4.05-1.307-5.618-1.83-3.658 7.84 5.618 18.553 12.281 22.734 5.488 3.527 12.804 3.005 16.593 9.668 0 0 3.266-12.412-3.528-24.432-2.22-3.92-9.015-11.758-15.547-13.065l-14.764-15.939"></path></svg></svg>