<svg xmlns="http://www.w3.org/2000/svg" xmlns:xlink="http://www.w3.org/1999/xlink" width="500" zoomAndPan="magnify" viewBox="0 0 375 374.999991" height="500" preserveAspectRatio="xMidYMid meet" version="1.0"><defs><g/></defs><rect x="-37.5" width="450" fill="#ffffff" y="-37.499999" height="449.999989" fill-opacity="1"/><rect x="-37.5" width="450" fill="#ffffff" y="-37.499999" height="449.999989" fill-opacity="1"/><g fill="#64a2a1" fill-opacity="1"><g transform="translate(35.675627, 371.400902)"><g><path d="M 46.875 -316.9375 L 151.765625 -50.4375 L 256.234375 -316.9375 L 298.640625 -316.9375 L 170.078125 0 L 133.46875 0 L 4.46875 -316.9375 Z M 46.875 -316.9375 "/></g></g></g><g fill="#64a2a1" fill-opacity="1"><g transform="translate(338.620295, 3.72392)"><g><path d="M -46.734375 315.96875 L -151.3125 50.28125 L -255.453125 315.96875 L -297.71875 315.96875 L -169.5625 0 L -133.0625 0 L -4.453125 315.96875 Z M -46.734375 315.96875 "/></g></g></g><path stroke-linecap="butt" transform="matrix(0.27389, -0.698201, 0.698201, 0.27389, 217.607011, 190.635691)" fill="none" stroke-linejoin="miter" d="M 0.00117174 12.999506 L 119.375962 12.999081 " stroke="#ffffff" stroke-width="26" stroke-opacity="1" stroke-miterlimit="4"/><path stroke-linecap="butt" transform="matrix(0.272997, -0.69855, 0.69855, 0.272997, 106.563206, 260.029905)" fill="none" stroke-linejoin="miter" d="M 0.00100798 12.999852 L 108.915729 13.001221 " stroke="#ffffff" stroke-width="26" stroke-opacity="1" stroke-miterlimit="4"/></svg>